<svg xmlns="http://www.w3.org/2000/svg" width="720" height="1080" viewBox="0 0 720 1080" role="img" aria-labelledby="title desc">
  <title id="title">Adicionar a Tela de Inicio</title>
  <desc id="desc">Ilustracao do menu de compartilhamento com a opcao Adicionar a Tela de Inicio destacada.</desc>
  <rect width="720" height="1080" fill="#f4f6fb"/>
  <rect x="80" y="100" width="560" height="840" rx="36" fill="#ffffff" stroke="#d9e0ec" stroke-width="3"/>
  <text x="360" y="170" text-anchor="middle" font-family="Arial, sans-serif" font-size="30" font-weight="700" fill="#111827">Menu Compartilhar</text>
  <rect x="122" y="235" width="476" height="74" rx="18" fill="#f8fafc"/>
  <text x="168" y="282" font-family="Arial, sans-serif" font-size="22" fill="#344054">Copiar link</text>
  <rect x="122" y="329" width="476" height="74" rx="18" fill="#f8fafc"/>
  <text x="168" y="376" font-family="Arial, sans-serif" font-size="22" fill="#344054">Adicionar aos Favoritos</text>
  <rect x="122" y="423" width="476" height="84" rx="18" fill="#eef2ff" stroke="#2458d3" stroke-width="5"/>
  <rect x="152" y="448" width="34" height="34" rx="8" fill="#2458d3"/>
  <path d="M169 440 v50 M144 465 h50" stroke="#ffffff" stroke-width="6" stroke-linecap="round"/>
  <text x="210" y="476" font-family="Arial, sans-serif" font-size="23" font-weight="700" fill="#111827">Adicionar a Tela de Inicio</text>
  <circle cx="570" cy="465" r="34" fill="#f97316"/>
  <text x="570" y="476" text-anchor="middle" font-family="Arial, sans-serif" font-size="28" font-weight="700" fill="#ffffff">3</text>
  <text x="360" y="620" text-anchor="middle" font-family="Arial, sans-serif" font-size="34" font-weight="700" fill="#111827">Escolha esta opcao</text>
  <text x="360" y="660" text-anchor="middle" font-family="Arial, sans-serif" font-size="21" fill="#475467">Ela instala o app como PWA no iPhone.</text>
  <rect x="100" y="930" width="520" height="86" rx="22" fill="#eef2ff"/>
  <text x="360" y="970" text-anchor="middle" font-family="Arial, sans-serif" font-size="22" font-weight="700" fill="#2458d3">Passo 3</text>
  <text x="360" y="1000" text-anchor="middle" font-family="Arial, sans-serif" font-size="19" fill="#344054">Toque em Adicionar a Tela de Inicio.</text>
</svg>
